<svg xmlns="http://www.w3.org/2000/svg" viewBox="0 0 96 16" width="96" height="16" aria-hidden="true" focusable="false">
  <path fill="currentColor" d="M8 0l2.245 5.09L16 5.708l-4.36 3.764L13.045 16 8 12.6 2.955 16l1.405-6.528L0 5.708l5.755-.618L8 0zm20 0l2.245 5.09L36 5.708l-4.36 3.764L33.045 16 28 12.6 22.955 16l1.405-6.528L20 5.708l5.755-.618L28 0zm20 0l2.245 5.09L56 5.708l-4.36 3.764L53.045 16 48 12.6 42.955 16l1.405-6.528L40 5.708l5.755-.618L48 0zm20 0l2.245 5.09L76 5.708l-4.36 3.764L73.045 16 68 12.6 62.955 16l1.405-6.528L60 5.708l5.755-.618L68 0zm20 0l2.245 5.09L96 5.708l-4.36 3.764L93.045 16 88 12.6 82.955 16l1.405-6.528L80 5.708l5.755-.618L88 0z"/>
</svg>
